<mxfile host="app.diagrams.net" modified="2023-05-12T06:30:54.353Z" agent="Mozilla/5.0 (Windows NT 10.0; Win64; x64; rv:109.0) Gecko/20100101 Firefox/112.0" etag="qvOIn5vtJZ_ZAsJwI9Kk" version="21.2.9" type="device">
  <diagram name="Stránka-1" id="eHexwdLHjNQ-IcHHVdi0">
    <mxGraphModel dx="2261" dy="749" grid="1" gridSize="10" guides="1" tooltips="1" connect="1" arrows="1" fold="1" page="1" pageScale="1" pageWidth="827" pageHeight="1169" math="0" shadow="0">
      <root>
        <mxCell id="0" />
        <mxCell id="1" parent="0" />
        <mxCell id="2NYI9WpJi9gs5jyqkTVr-5" value="Sviť nastavenou barvou" style="rounded=1;whiteSpace=wrap;html=1;fillColor=#dae8fc;strokeColor=#6c8ebf;fontStyle=1" parent="1" vertex="1">
          <mxGeometry x="-80" y="300" width="120" height="60" as="geometry" />
        </mxCell>
        <mxCell id="2NYI9WpJi9gs5jyqkTVr-60" style="edgeStyle=orthogonalEdgeStyle;rounded=0;orthogonalLoop=1;jettySize=auto;html=1;entryX=0;entryY=0.5;entryDx=0;entryDy=0;startArrow=classic;startFill=1;fontStyle=1" parent="1" source="2NYI9WpJi9gs5jyqkTVr-39" target="2NYI9WpJi9gs5jyqkTVr-58" edge="1">
          <mxGeometry relative="1" as="geometry" />
        </mxCell>
        <mxCell id="2NYI9WpJi9gs5jyqkTVr-63" style="edgeStyle=orthogonalEdgeStyle;rounded=0;orthogonalLoop=1;jettySize=auto;html=1;startArrow=classic;startFill=1;fontStyle=1" parent="1" source="2NYI9WpJi9gs5jyqkTVr-39" target="2NYI9WpJi9gs5jyqkTVr-5" edge="1">
          <mxGeometry relative="1" as="geometry" />
        </mxCell>
        <mxCell id="2NYI9WpJi9gs5jyqkTVr-39" value="&lt;div&gt;Je stisknuto středové&lt;/div&gt;&lt;div&gt;tlačítko?&lt;/div&gt;" style="rhombus;whiteSpace=wrap;html=1;fillColor=#d5e8d4;strokeColor=#82b366;fontStyle=1" parent="1" vertex="1">
          <mxGeometry x="-70" y="185" width="100" height="90" as="geometry" />
        </mxCell>
        <mxCell id="2NYI9WpJi9gs5jyqkTVr-40" value="Ne" style="text;html=1;strokeColor=none;fillColor=none;align=center;verticalAlign=middle;whiteSpace=wrap;rounded=0;fontStyle=1" parent="1" vertex="1">
          <mxGeometry x="-30" y="270" width="60" height="30" as="geometry" />
        </mxCell>
        <mxCell id="2NYI9WpJi9gs5jyqkTVr-49" style="edgeStyle=orthogonalEdgeStyle;rounded=0;orthogonalLoop=1;jettySize=auto;html=1;entryX=0;entryY=0.5;entryDx=0;entryDy=0;fontStyle=1" parent="1" source="2NYI9WpJi9gs5jyqkTVr-48" target="2NYI9WpJi9gs5jyqkTVr-39" edge="1">
          <mxGeometry relative="1" as="geometry" />
        </mxCell>
        <mxCell id="2NYI9WpJi9gs5jyqkTVr-48" value="Inicializace" style="rounded=1;whiteSpace=wrap;html=1;fillColor=#ffe6cc;strokeColor=#d79b00;fontStyle=1" parent="1" vertex="1">
          <mxGeometry x="-220" y="200" width="120" height="60" as="geometry" />
        </mxCell>
        <mxCell id="2NYI9WpJi9gs5jyqkTVr-58" value="&lt;div&gt;Nastav novou &lt;br&gt;&lt;/div&gt;&lt;div&gt;barvu, která je následující v pořadí&lt;/div&gt;" style="rounded=1;whiteSpace=wrap;html=1;fillColor=#dae8fc;strokeColor=#6c8ebf;fontStyle=1" parent="1" vertex="1">
          <mxGeometry x="80" y="200" width="120" height="60" as="geometry" />
        </mxCell>
        <mxCell id="2NYI9WpJi9gs5jyqkTVr-59" value="Ano" style="text;html=1;strokeColor=none;fillColor=none;align=center;verticalAlign=middle;whiteSpace=wrap;rounded=0;fontStyle=1" parent="1" vertex="1">
          <mxGeometry x="20" y="200" width="60" height="30" as="geometry" />
        </mxCell>
      </root>
    </mxGraphModel>
  </diagram>
</mxfile>
